PathFileType	4	(X/Y/Z)	 s03c0102.trc
DataRate	CameraRate	NumFrames	NumMarkers	Units	OrigDataRate	OrigDataStartFrame	OrigNumFrames
200	200	5	52	mm	200	1251	2000
Frame#	Time	racr			lacr			c7			jug			rlel			rdr			llel			ldr			s2			lic			ric			lasi			rasi			rpsi			lpsi			rgt			lgt			rth1			rth2			rth3			rth4			rlfc			rmfc			rsh1			rsh2			rsh3			rsh4			rlmal			rmmal			rcal			rtoe			rmt5			rmt1			lth1			lth2			lth4			lth3			llfc			lmfc			lsh1			lsh2			lsh3			lsh4			llmal			lmmal			lcal			ltoe			lmt1			lmt5			SBIKE			LBIKE			RBIKE			
		X1	Y1	Z1	X2	Y2	Z2	X3	Y3	Z3	X4	Y4	Z4	X5	Y5	Z5	X6	Y6	Z6	X7	Y7	Z7	X8	Y8	Z8	X9	Y9	Z9	X10	Y10	Z10	X11	Y11	Z11	X12	Y12	Z12	X13	Y13	Z13	X14	Y14	Z14	X15	Y15	Z15	X16	Y16	Z16	X17	Y17	Z17	X18	Y18	Z18	X19	Y19	Z19	X20	Y20	Z20	X21	Y21	Z21	X22	Y22	Z22	X23	Y23	Z23	X24	Y24	Z24	X25	Y25	Z25	X26	Y26	Z26	X27	Y27	Z27	X28	Y28	Z28	X29	Y29	Z29	X30	Y30	Z30	X31	Y31	Z31	X32	Y32	Z32	X33	Y33	Z33	X34	Y34	Z34	X35	Y35	Z35	X36	Y36	Z36	X37	Y37	Z37	X38	Y38	Z38	X39	Y39	Z39	X40	Y40	Z40	X41	Y41	Z41	X42	Y42	Z42	X43	Y43	Z43	X44	Y44	Z44	X45	Y45	Z45	X46	Y46	Z46	X47	Y47	Z47	X48	Y48	Z48	X49	Y49	Z49	X50	Y50	Z50	X51	Y51	Z51	X52	Y52	Z52	
1251	6.2550	500.257933	1400.690911	-143.066596	402.229294	1401.802239	-440.072353	393.236671	1495.135289	-273.392632	391.456774	1320.946492	-275.247469	551.165358	1157.269224	-2.649968	746.285940	939.938787	-38.962870	487.197870	1149.357225	-491.739605	727.043648	952.504479	-420.089416	-108.492758	1207.406082	-164.479934	18.674018	1267.932437	-370.762495	85.388423	1238.951165	-6.668403	60.927962	1196.776005	-338.072785	105.509845	1172.891027	-54.552644	-73.324020	1256.006898	-118.190475	-85.217432	1263.928645	-197.013626	19.206372	1110.636480	3.530490	-0.122578	1188.214839	-388.412327	104.797552	970.838460	14.716065	177.495351	919.957677	17.402257	216.692782	843.689208	9.181960	204.845011	943.794356	9.056628	277.311425	730.716432	-21.844810	284.642190	718.222872	-140.956790	211.663892	576.418396	-1.293381	201.406734	489.346298	-18.746575	148.297524	418.643225	-24.121228	230.732896	481.630662	-42.469708	90.525914	300.831214	-52.908668	122.435854	308.827197	-130.810133	23.404276	285.048609	-93.318070	301.089890	148.176444	-110.597548	186.660269	176.429476	-35.819386	217.736023	190.395976	-148.753185	125.484203	1121.383839	-426.490431	210.852489	1114.048228	-438.587928	224.361800	1145.276009	-423.852950	282.714680	1062.540065	-451.990797	418.881209	1020.722794	-450.452463	434.921066	1004.063783	-317.002801	342.042807	865.423975	-457.572993	327.201053	783.212604	-436.595954	268.945238	714.899592	-427.239593	358.052192	771.732170	-416.399633	210.045235	602.390747	-403.036970	247.803439	614.720080	-316.067979	138.940032	567.491625	-353.299113	439.654820	496.849592	-351.604499	346.167942	512.948244	-308.216768	319.573255	498.917017	-422.989416	-214.278864	946.553172	-226.466030	-6.292421	84.866425	-434.525674	-11.291725	80.920548	-34.214149	
1252	6.2600	500.378690	1399.957064	-143.868789	401.595483	1401.704719	-440.523812	392.986177	1494.813226	-273.660367	391.112223	1320.638171	-275.953075	551.123111	1156.584174	-2.996045	746.286877	939.579346	-38.754315	486.900229	1149.567206	-491.810365	726.875414	952.758366	-420.061280	-109.080492	1207.335847	-164.735779	17.917611	1268.549592	-370.864602	84.811685	1239.039860	-6.647056	60.335970	1197.267031	-338.210242	104.163371	1172.163406	-54.813092	-73.915951	1256.191597	-118.462250	-85.565999	1263.771943	-197.124413	19.089412	1111.119476	3.464146	-0.951646	1187.055109	-388.450035	105.624911	972.269233	14.229276	178.798178	922.074996	16.664409	218.689961	846.153206	8.836347	205.846093	946.057028	8.383463	279.848010	733.374647	-21.418799	287.331086	720.751398	-140.715473	211.134977	580.101468	-1.157854	199.152435	493.421189	-18.549278	144.260480	423.927740	-24.543124	228.134633	485.118815	-42.457808	84.098198	307.540078	-53.309910	116.448718	314.634872	-131.277766	16.678245	292.955268	-93.828455	291.716406	150.508149	-110.533475	177.949020	181.446592	-36.069091	209.017208	193.946466	-148.891203	124.915354	1118.863253	-427.000078	210.279232	1110.605425	-438.571786	224.308687	1142.241007	-425.231414	281.752555	1058.620282	-451.447653	417.914570	1015.818536	-448.713031	433.327897	999.527552	-315.931857	342.552888	859.697822	-457.363402	329.067723	776.967157	-436.219154	271.765720	707.866111	-427.286058	360.138605	766.109918	-416.788861	215.127111	593.583363	-403.411469	252.174821	607.046806	-316.234257	144.812342	556.338965	-353.975491	447.675454	495.893121	-351.452310	353.367725	507.868808	-310.742589	327.584315	493.731711	-423.365716	-214.221008	946.563861	-226.380363	-6.293100	84.896533	-434.519416	-11.280119	80.920254	-34.201993	
1253	6.2650	500.490638	1399.226799	-144.520640	401.033327	1401.610292	-440.721795	392.779645	1494.487734	-273.652535	390.809672	1320.328651	-276.449665	550.973148	1155.976979	-3.595596	746.334963	939.203505	-38.477515	486.671895	1149.852156	-491.609990	726.752188	952.960847	-419.942265	-109.546717	1207.257623	-165.127496	17.317647	1268.821550	-371.118385	83.940664	1238.910822	-6.779802	59.825391	1197.362128	-338.503989	103.206612	1171.963939	-55.149246	-74.612833	1256.266856	-118.874017	-85.916320	1263.412469	-197.451396	18.961858	1111.566939	3.365652	-1.622684	1185.613326	-388.705909	106.542671	973.678219	13.511469	180.110909	924.230837	15.769769	221.175104	848.576732	8.398033	206.939365	948.469630	7.406789	282.549723	736.229111	-21.080621	290.211082	723.400376	-140.554929	210.925416	584.061315	-1.047778	196.707179	497.797850	-18.970523	140.647857	429.550974	-24.859912	224.519069	488.834336	-43.280628	78.001950	314.709264	-53.818954	110.528482	321.052289	-131.764840	10.393157	301.339198	-94.367125	282.672093	153.507597	-110.486557	169.396115	186.807163	-36.599421	200.821529	198.502347	-149.123441	124.517122	1115.495915	-426.893668	209.784393	1106.539755	-438.687433	224.028588	1138.178351	-425.714575	280.751325	1053.902501	-451.267281	416.743247	1010.003312	-447.552941	431.534993	993.804801	-315.317615	342.814571	852.657457	-456.903675	330.577387	769.616414	-436.088073	274.338053	699.669676	-427.241065	361.873856	759.026482	-416.671389	220.015318	583.832046	-403.949098	256.466821	598.299850	-316.462649	150.368453	544.303115	-354.598881	455.249521	494.558754	-351.461166	360.900416	504.189467	-309.321358	335.019297	488.279873	-424.817866	-214.182567	946.550563	-226.267088	-6.273492	84.889071	-434.503209	-11.259614	80.918850	-34.173429	
1254	6.2700	500.552322	1398.593464	-144.853493	400.627125	1401.591865	-440.712896	392.614904	1494.161369	-273.429235	390.635618	1320.018041	-276.692342	550.757120	1155.276987	-3.839003	746.361592	938.830279	-38.219520	486.565572	1150.175770	-491.135463	726.679251	953.093862	-419.726237	-110.021669	1207.039545	-165.785673	16.792583	1268.766224	-371.504987	83.151471	1238.689960	-7.024420	59.274708	1197.111432	-338.812554	102.506653	1172.321070	-55.745230	-75.301425	1256.167513	-119.508234	-86.346305	1262.977370	-197.983800	18.763564	1111.959402	3.172400	-2.285591	1183.926392	-388.979691	107.486940	975.126374	12.713938	181.548395	926.548675	14.772715	223.372759	851.235204	7.786829	208.051863	950.903358	6.471217	285.494475	739.335646	-20.664933	294.020395	726.370802	-140.486081	211.066053	588.273303	-1.008802	194.871600	502.378247	-19.245618	137.306163	435.401219	-25.131894	222.508157	492.882421	-43.475513	72.236848	322.351854	-54.347040	105.177861	327.698265	-132.318801	4.425580	310.160520	-95.095622	273.685312	157.056938	-110.051795	161.263742	192.933807	-36.878285	192.784064	203.474542	-149.505458	124.154337	1111.792380	-427.249211	209.306887	1101.763523	-438.821450	223.891782	1133.399115	-426.386312	279.789680	1048.118829	-450.418253	415.287807	1003.258457	-446.918940	429.674626	986.942381	-315.066741	342.792327	844.431456	-456.515882	331.884535	761.066334	-436.007679	276.692383	690.343774	-427.223387	363.316621	750.876713	-416.595694	224.574566	573.293272	-404.428801	260.378518	588.679759	-316.723654	155.743963	531.519713	-355.326959	462.204010	492.426149	-351.725514	367.589017	498.686080	-309.723030	342.674638	481.023320	-424.418809	-214.151831	946.544396	-226.137764	-6.243393	84.874727	-434.484669	-11.261137	80.908976	-34.178535	
1255	6.2750	500.568187	1398.140277	-145.004039	400.366931	1401.621988	-440.436938	392.450663	1493.891079	-273.027174	390.566770	1319.763124	-276.734412	550.739133	1154.505991	-4.048727	746.355010	938.543234	-38.057035	486.569088	1150.446462	-490.435676	726.527157	952.864172	-418.958077	-110.575759	1206.726496	-166.677917	16.526941	1268.431397	-372.051516	82.175674	1238.359778	-7.480336	58.891763	1196.526372	-339.274160	101.670256	1172.451041	-56.556036	-76.086532	1255.976618	-120.293352	-86.759980	1262.456155	-198.743116	18.514444	1112.269989	2.881282	-2.714461	1181.918470	-389.522550	108.224705	976.721772	12.461605	183.074817	928.871445	13.690606	225.752407	854.056728	7.126877	209.291103	953.337660	5.026279	288.663497	742.603052	-20.304615	296.054082	729.594410	-140.237655	211.536076	592.730662	-0.989920	193.746095	507.322486	-19.130297	134.426248	441.678378	-25.390405	220.871815	497.379139	-43.756853	66.900685	330.498317	-55.053059	100.073421	334.850413	-132.980154	-1.395967	319.929165	-95.287011	265.375963	161.169290	-110.377227	153.532163	199.512880	-37.165071	185.271253	209.229267	-149.776072	123.833339	1107.683452	-427.802983	208.871336	1096.439109	-439.147141	223.962823	1128.428488	-428.594812	278.668716	1041.762056	-450.159971	413.453965	995.332609	-446.281442	427.772501	979.045259	-315.034729	342.761058	835.121486	-456.285487	332.974587	751.617054	-436.032863	278.876091	680.009766	-427.324901	364.547153	741.783676	-416.626844	229.211163	562.138208	-405.302324	264.229044	578.255865	-316.859959	160.889715	518.091792	-356.105070	468.694577	489.672217	-352.063100	374.056079	492.511741	-310.391472	349.331364	474.094022	-426.009273	-214.153332	946.513092	-226.165503	-6.243411	84.852498	-434.479458	-11.253278	80.893141	-34.157268	
